<svg xmlns="http://www.w3.org/2000/svg" width="1740" height="1586" viewBox="0 0 1740 1586" version="1.1"><path d="M 657.500 145.027 C 474.949 154.363, 307.541 237.622, 190.259 377.405 C 60.272 532.332, 10.111 738.262, 54.072 936.500 C 83.687 1070.040, 156.336 1192.482, 259.864 1283.340 C 363.871 1374.617, 493.217 1430.134, 630.587 1442.459 C 639.985 1443.303, 662.260 1444.439, 680.087 1444.984 C 716.115 1446.086, 1325 1446.419, 1325 1445.336 C 1325 1444.971, 1296.920 1388.828, 1262.600 1320.574 L 1200.199 1196.476 1209.189 1184.488 C 1286.293 1081.667, 1330.069 961.792, 1338.096 831.500 C 1339.547 807.951, 1338.738 758.757, 1336.526 736 C 1324.616 613.475, 1282.289 503.073, 1210.113 406.278 C 1109.138 270.858, 961.155 180.684, 794.500 153.020 C 751.911 145.951, 699.375 142.886, 657.500 145.027 M 660 346.071 C 569.615 351.693, 480.936 385.768, 409.703 442.247 C 332.515 503.447, 277.081 588.879, 253.162 683.500 C 229.486 777.157, 235.990 872.913, 272.214 964 C 304.766 1045.854, 366.870 1121.408, 442 1170.555 C 502.616 1210.208, 567.837 1233.400, 643.500 1242.208 C 658.001 1243.896, 720.802 1243.886, 734.500 1242.193 C 764.526 1238.482, 807.573 1229.822, 810.498 1226.904 C 811.049 1226.355, 853.863 1142.789, 905.639 1041.203 L 999.778 856.500 1014.639 856.500 L 1029.500 856.500 1062.372 921.953 L 1095.245 987.407 1098.180 980.953 C 1119.362 934.392, 1133.301 879.411, 1137.084 827.500 C 1138.570 807.111, 1137.721 760.985, 1135.548 744 C 1127.097 677.973, 1107.587 619.575, 1076.340 566.770 C 1031.436 490.887, 964.830 429.211, 886.500 390.980 C 815.865 356.505, 738.585 341.183, 660 346.071 M 859.802 1218.342 L 769.105 1396.500 859.552 1396.755 C 909.299 1396.896, 990.700 1396.896, 1040.445 1396.755 L 1130.891 1396.500 1041.164 1218.802 C 991.814 1121.067, 951.226 1040.896, 950.968 1040.644 C 950.711 1040.392, 909.686 1120.356, 859.802 1218.342" stroke="none" fill="#8a32f0" fill-rule="evenodd"/><path d="M 0 793 L 0 1586 691.016 1586 L 1382.031 1586 1393.266 1575.820 C 1461.191 1514.271, 1519.538 1446.198, 1569.250 1370.500 C 1648.272 1250.171, 1702.195 1112.941, 1725.966 971.673 C 1732.191 934.677, 1736.959 893.987, 1738.757 862.500 C 1739.166 855.350, 1739.726 1015.100, 1740.002 1217.500 C 1740.314 1445.945, 1740.504 1284.773, 1740.504 792.500 C 1740.504 297.572, 1740.315 138.575, 1740.002 369.500 C 1739.726 573, 1739.143 733.476, 1738.706 726.114 C 1733.163 632.648, 1711.843 529.795, 1679.296 439.500 C 1633.089 311.305, 1563.944 195.587, 1471.657 92 C 1456.452 74.934, 1408.646 27.137, 1391.361 11.719 L 1378.221 0 689.111 0 L 0 0 0 793 M 0.497 793.500 C 0.497 1229.650, 0.611 1407.925, 0.750 1189.668 C 0.889 971.410, 0.889 614.560, 0.750 396.668 C 0.611 178.775, 0.497 357.350, 0.497 793.500 M 657.500 145.027 C 474.949 154.363, 307.541 237.622, 190.259 377.405 C 60.272 532.332, 10.111 738.262, 54.072 936.500 C 83.687 1070.040, 156.336 1192.482, 259.864 1283.340 C 363.871 1374.617, 493.217 1430.134, 630.587 1442.459 C 639.985 1443.303, 662.260 1444.439, 680.087 1444.984 C 716.115 1446.086, 1325 1446.419, 1325 1445.336 C 1325 1444.971, 1296.920 1388.828, 1262.600 1320.574 L 1200.199 1196.476 1209.189 1184.488 C 1286.293 1081.667, 1330.069 961.792, 1338.096 831.500 C 1339.547 807.951, 1338.738 758.757, 1336.526 736 C 1324.616 613.475, 1282.289 503.073, 1210.113 406.278 C 1109.138 270.858, 961.155 180.684, 794.500 153.020 C 751.911 145.951, 699.375 142.886, 657.500 145.027 M 660 346.071 C 569.615 351.693, 480.936 385.768, 409.703 442.247 C 332.515 503.447, 277.081 588.879, 253.162 683.500 C 229.486 777.157, 235.990 872.913, 272.214 964 C 304.766 1045.854, 366.870 1121.408, 442 1170.555 C 502.616 1210.208, 567.837 1233.400, 643.500 1242.208 C 658.001 1243.896, 720.802 1243.886, 734.500 1242.193 C 764.526 1238.482, 807.573 1229.822, 810.498 1226.904 C 811.049 1226.355, 853.863 1142.789, 905.639 1041.203 L 999.778 856.500 1014.639 856.500 L 1029.500 856.500 1062.372 921.953 L 1095.245 987.407 1098.180 980.953 C 1119.362 934.392, 1133.301 879.411, 1137.084 827.500 C 1138.570 807.111, 1137.721 760.985, 1135.548 744 C 1127.097 677.973, 1107.587 619.575, 1076.340 566.770 C 1031.436 490.887, 964.830 429.211, 886.500 390.980 C 815.865 356.505, 738.585 341.183, 660 346.071 M 859.802 1218.342 L 769.105 1396.500 859.552 1396.755 C 909.299 1396.896, 990.700 1396.896, 1040.445 1396.755 L 1130.891 1396.500 1041.164 1218.802 C 991.814 1121.067, 951.226 1040.896, 950.968 1040.644 C 950.711 1040.392, 909.686 1120.356, 859.802 1218.342" stroke="none" fill="#ebe3fb" fill-rule="evenodd"/></svg>