<svg version="1.1" id="Layer_1" xmlns="http://www.w3.org/2000/svg" xmlns:xlink="http://www.w3.org/1999/xlink" x="0px" y="0px"
	 width="100%" viewBox="0 0 2048 2048" enable-background="new 0 0 2048 2048" xml:space="preserve">
<path fill="#EEE3FF" opacity="1.000000" stroke="none"
	d="
M992.750000,1.201288
	C1014.020935,1.000000 1035.041870,1.000000 1056.531372,1.000000
	C1058.870483,2.076118 1060.909424,1.494598 1062.850220,1.480833
	C1097.053833,1.238256 1130.969116,4.589029 1164.807983,9.238054
	C1184.775391,11.981299 1204.699829,15.025796 1224.435547,19.014051
	C1250.552246,24.291800 1276.457886,30.508854 1302.112671,37.835903
	C1318.449341,42.501701 1334.703369,47.415001 1350.824951,52.713490
	C1368.538208,58.535076 1385.966309,65.211571 1403.360107,71.959671
	C1440.540894,86.384277 1476.400757,103.640999 1511.451050,122.562263
	C1539.153198,137.516724 1566.181030,153.603577 1592.300659,171.275787
	C1612.590088,185.003342 1632.529053,199.187820 1651.962769,214.052170
	C1672.729004,229.935776 1692.623535,246.906799 1711.992798,264.499969
	C1732.965698,283.549744 1753.147949,303.362915 1772.539185,324.022583
	C1785.766479,338.114929 1798.262207,352.817413 1810.926880,367.397888
	C1829.636719,388.937775 1846.122803,412.149872 1863.060547,435.015076
	C1873.159668,448.648285 1881.942139,463.232941 1891.243164,477.439056
	C1902.112793,494.041168 1912.009521,511.179199 1921.664551,528.468384
	C1931.897461,546.792236 1941.450806,565.480408 1950.475830,584.439575
	C1964.720825,614.364197 1977.665771,644.807617 1988.824707,676.037537
	C1996.951782,698.782227 2004.417480,721.700623 2010.966675,744.950195
	C2015.614380,761.449219 2019.841431,778.028687 2023.787964,794.707642
	C2029.996338,820.945679 2034.928711,847.426514 2038.888184,874.056824
	C2042.239258,896.594299 2044.642090,919.278076 2046.436523,942.023315
	C2047.969727,961.457275 2048.407471,980.900146 2048.771729,1000.684326
	C2049.000000,1016.687561 2049.000000,1032.375122 2049.000000,1048.531372
	C2047.855835,1054.395142 2048.737549,1059.847290 2048.771240,1065.634521
	C2049.000000,1067.714355 2049.000000,1069.428711 2049.000000,1071.571533
	C2047.762573,1073.197021 2048.028076,1074.756348 2047.998291,1076.233887
	C2047.380371,1106.891602 2043.764771,1137.265869 2039.865601,1167.644043
	C2037.553223,1185.660156 2034.317749,1203.499512 2030.970215,1221.312500
	C2027.840942,1237.964233 2023.981445,1254.483887 2019.889282,1270.948242
	C2017.160156,1281.928711 2014.289429,1292.855347 2011.228882,1303.744751
	C2003.521729,1331.166626 1994.505493,1358.136597 1984.636475,1384.862549
	C1973.546509,1414.894897 1960.708862,1444.163086 1946.725098,1472.898193
	C1929.813110,1507.650635 1910.855713,1541.295410 1890.087280,1573.945068
	C1872.105103,1602.214600 1852.830078,1629.544189 1832.330811,1655.992920
	C1821.019775,1670.586670 1808.917480,1684.578247 1796.823364,1698.563354
	C1788.766968,1707.879517 1780.250854,1716.758423 1772.138428,1726.012329
	C1763.472656,1735.897583 1753.601807,1744.662109 1744.479858,1754.137085
	C1732.001465,1767.098633 1718.720093,1779.241821 1705.280762,1791.162964
	C1693.090088,1801.976440 1680.490845,1812.352661 1667.920898,1822.744507
	C1653.922729,1834.317017 1639.307495,1845.085449 1624.701416,1855.846313
	C1609.833862,1866.800171 1594.408569,1876.976440 1578.852051,1886.945801
	C1560.908691,1898.444946 1542.849243,1909.782837 1524.141479,1919.963623
	C1507.186523,1929.190552 1490.181519,1938.351318 1472.733521,1946.685669
	C1456.961670,1954.219482 1441.246338,1961.919312 1425.099854,1968.547607
	C1407.401855,1975.812866 1389.663818,1982.999756 1371.606567,1989.453735
	C1345.243408,1998.876831 1318.531494,2007.057739 1291.631592,2014.654785
	C1271.470581,2020.348999 1251.023682,2024.975342 1230.443604,2028.975464
	C1207.732300,2033.389893 1184.974487,2037.526245 1162.044312,2040.631226
	C1144.073853,2043.064331 1126.022217,2044.761719 1107.957520,2046.345093
	C1083.886597,2048.454834 1059.756226,2048.326660 1035.316162,2048.771973
	C1028.645630,2049.000000 1022.291199,2049.000000 1015.468384,2049.000000
	C1013.301636,2047.946045 1011.425171,2048.506348 1009.650146,2048.518066
	C990.002197,2048.645996 970.328796,2048.511719 950.755432,2047.105103
	C928.365295,2045.495728 905.998840,2043.330200 883.742920,2040.103638
	C869.571228,2038.049072 855.401550,2035.923584 841.359314,2033.241699
	C820.605652,2029.277954 799.917969,2024.962036 779.344604,2020.021606
	C756.660828,2014.574463 734.345947,2007.916504 712.048767,2001.214233
	C695.331177,1996.188965 678.867737,1990.221191 662.589661,1983.881104
	C644.772339,1976.941406 626.965576,1969.939453 609.513489,1962.099731
	C589.467346,1953.094727 569.714294,1943.476929 550.210083,1933.352173
	C528.031494,1921.838867 506.481018,1909.220825 485.218933,1896.110596
	C455.854279,1878.004150 427.720428,1858.143433 400.258881,1837.254761
	C380.747009,1822.413208 361.881714,1806.814819 343.582550,1790.565063
	C327.778595,1776.531006 312.452087,1761.938965 297.569580,1746.895142
	C280.461792,1729.602295 263.855042,1711.851685 248.094925,1693.330322
	C232.986801,1675.575195 218.159042,1657.589600 204.468506,1638.687012
	C196.361877,1627.494019 187.910370,1616.557373 180.137436,1605.114136
	C169.562927,1589.546265 159.056580,1573.930664 149.349365,1557.811768
	C136.893936,1537.129150 124.717728,1516.284302 113.773430,1494.734253
	C102.760643,1473.049561 92.351616,1451.096924 82.596565,1428.816528
	C76.646698,1415.227295 71.147064,1401.457886 65.904274,1387.604370
	C58.836746,1368.929077 52.340206,1350.042236 46.488655,1330.925781
	C38.782352,1305.750000 31.540216,1280.456421 25.652164,1254.798462
	C23.014732,1243.305542 20.748148,1231.720459 18.464973,1220.142456
	C14.824813,1201.683228 11.594451,1183.162109 9.334710,1164.500000
	C6.775171,1143.362061 3.820876,1122.264526 2.523159,1100.974854
	C2.129633,1094.518921 2.680703,1088.008057 1.247698,1081.300293
	C1.000000,1078.958374 1.000000,1076.916626 1.000000,1074.437500
	C2.144289,1068.604858 1.262709,1063.152710 1.228741,1057.365479
	C1.000000,1033.312500 1.000000,1009.624878 1.000000,985.468628
	C2.046065,982.257385 1.328101,979.418823 1.227799,976.313110
	C1.000000,973.958313 1.000000,971.916687 1.000000,969.437500
	C2.369734,967.642456 1.969558,965.894775 1.996454,964.267151
	C2.340624,943.441528 4.761862,922.809692 7.169971,902.142883
	C8.827498,887.917664 10.574220,873.685730 12.985374,859.610901
	C16.439674,839.446899 19.733139,819.232910 24.571663,799.300598
	C29.718349,778.098938 35.165619,756.980347 40.859936,735.926453
	C43.203480,727.261475 46.561474,718.892212 49.157593,710.276672
	C56.894100,684.602417 66.540939,659.590637 76.646317,634.781555
	C85.439804,613.193237 95.202866,592.020203 105.774765,571.220398
	C113.316872,556.381470 120.484421,541.343872 128.582260,526.800049
	C138.142242,509.630188 148.355896,492.837463 158.915482,476.259491
	C181.396851,440.965057 205.836166,407.075836 232.383438,374.736084
	C250.340286,352.861145 268.921265,331.530396 289.025330,311.553497
	C304.854736,295.824188 320.348175,279.747772 336.959961,264.832886
	C364.232941,240.345856 392.668365,217.281723 422.258057,195.636795
	C456.856354,170.328049 492.918945,147.315887 530.458496,126.642143
	C554.666931,113.310135 579.425781,101.014954 604.578125,89.587021
	C621.544067,81.878601 638.819885,74.849602 656.228394,68.119690
	C692.144470,54.234982 728.732971,42.473064 765.923950,32.665478
	C783.290649,28.085714 800.870911,24.214947 818.478882,20.525492
	C848.825623,14.166835 879.442871,9.586674 910.210449,6.045635
	C928.374573,3.955132 946.580872,2.079978 964.924072,1.893953
	C971.397156,1.828308 977.890930,1.659910 984.686401,1.227729
	C987.041687,1.000000 989.083313,1.000000 991.562500,1.000000
	C992.166687,1.134192 992.333313,1.268384 992.750000,1.201288
z"/>
<path fill="#963DF9" opacity="1.000000" stroke="none"
	d="
M1655.832275,980.594604
	C1656.310303,981.786377 1656.489136,982.644958 1656.586914,983.825073
	C1656.505737,984.146667 1656.536621,984.528442 1656.562988,984.718140
	C1656.713867,987.318420 1656.838379,989.728943 1656.921631,992.591248
	C1657.119629,1014.027649 1656.979980,1035.012695 1656.905762,1056.472412
	C1657.014038,1061.718140 1657.000244,1066.480103 1656.023193,1071.607910
	C1655.531494,1072.578735 1654.711670,1071.384399 1654.772583,1072.011230
	C1655.202148,1076.429199 1655.075806,1080.830688 1654.762939,1085.597412
	C1654.810913,1086.717529 1654.823120,1087.478271 1654.734131,1088.606934
	C1652.066406,1098.919067 1651.738037,1109.203979 1650.233032,1119.306641
	C1648.191528,1133.011353 1645.546997,1146.572876 1642.695068,1160.105835
	C1642.181274,1162.544189 1642.093506,1165.034302 1641.277588,1167.835205
	C1641.129150,1168.240601 1641.167480,1168.613770 1641.098999,1168.788330
	C1638.387939,1178.765259 1635.717896,1188.560547 1633.279175,1198.827637
	C1633.119995,1199.198853 1633.148560,1199.614258 1633.083252,1199.812012
	C1629.851929,1205.414673 1629.169434,1211.646484 1627.318237,1217.481079
	C1624.653931,1225.877686 1620.906006,1233.887085 1618.423340,1242.308472
	C1614.185059,1256.685791 1608.107788,1270.356934 1601.678955,1283.748779
	C1595.379639,1296.870605 1589.866821,1310.394409 1582.314453,1322.986328
	C1578.280762,1329.711182 1573.821167,1336.469116 1571.135498,1344.411133
	C1570.867920,1344.683716 1570.867676,1344.835083 1570.798096,1344.864990
	C1566.573242,1349.107056 1564.391724,1354.555298 1561.366577,1359.886230
	C1561.200684,1360.193481 1561.076904,1360.145874 1561.142456,1360.135864
	C1550.520020,1375.542358 1540.209351,1391.221191 1529.020996,1406.662720
	C1528.535645,1407.574341 1528.093994,1408.142944 1527.441650,1408.889404
	C1525.151245,1410.315796 1524.760010,1413.700562 1521.211182,1413.418701
	C1514.679321,1405.112793 1511.217285,1395.461548 1506.557983,1386.476562
	C1492.447388,1359.265991 1478.989136,1331.720459 1465.179932,1304.353638
	C1456.328979,1286.812988 1447.574219,1269.220825 1438.834961,1251.622437
	C1433.354736,1240.586670 1427.799072,1229.587524 1422.185669,1218.618286
	C1421.429199,1217.140015 1420.398560,1215.790894 1420.337158,1213.672729
	C1420.968506,1211.689087 1421.830078,1210.163208 1422.043701,1208.028198
	C1422.235596,1207.419800 1422.331787,1207.181152 1422.626953,1206.609741
	C1427.299927,1198.171143 1431.060669,1189.793945 1434.362183,1181.100098
	C1437.128784,1173.815552 1438.867920,1166.186401 1442.187256,1159.092407
	C1444.300293,1154.576416 1444.601318,1149.460449 1446.097656,1144.687256
	C1450.728394,1129.916138 1453.482056,1114.684570 1456.455811,1099.519287
	C1456.965210,1096.921997 1456.871704,1094.211548 1456.251221,1091.161377
	C1456.189209,1090.182251 1456.260132,1089.624023 1456.578613,1088.674561
	C1459.893066,1082.717407 1459.990234,1076.355225 1460.357422,1070.394775
	C1461.579346,1050.556396 1464.054688,1030.676636 1462.435913,1010.809143
	C1461.135132,994.846497 1461.507080,978.694336 1457.634399,962.608154
	C1456.625122,961.355713 1456.179199,960.322510 1456.107788,958.728088
	C1458.006958,950.870361 1455.188110,943.836121 1453.912964,936.750488
	C1451.686646,924.379944 1448.356079,912.231506 1444.885498,900.146362
	C1441.737915,889.185669 1438.350586,878.293335 1433.766235,867.823486
	C1431.250122,862.076782 1430.122437,855.718506 1425.900391,850.341797
	C1425.042603,849.557556 1424.618286,848.933533 1424.313477,847.824585
	C1424.265991,843.149231 1422.369995,839.220032 1420.486694,835.728210
	C1414.358398,824.365723 1408.347412,812.930969 1402.017578,801.670044
	C1398.910400,796.142212 1395.882080,790.691467 1391.446533,785.677551
	C1391.088867,785.220093 1390.955566,785.031494 1390.658203,784.540344
	C1390.242676,783.599304 1390.157837,782.939819 1390.346191,781.953857
	C1390.703857,781.434631 1390.861816,781.173035 1390.896606,780.861389
	C1390.909180,780.750244 1390.887207,780.692322 1390.891602,780.694702
	C1390.896851,780.697510 1390.842896,780.844910 1390.413086,781.158325
	C1388.545166,780.728088 1387.947754,779.147095 1386.442261,778.129150
	C1385.995361,777.798584 1385.818848,777.659912 1385.393555,777.287598
	C1384.996094,776.878723 1384.847412,776.703430 1384.510498,776.236694
	C1384.218750,775.737671 1384.115234,775.530029 1383.879883,775.000488
	C1382.331299,768.848145 1378.329590,764.700134 1374.511963,760.418457
	C1368.843506,754.060974 1364.410645,746.701660 1358.459595,740.569092
	C1357.541016,739.622742 1356.742798,738.545532 1355.089844,737.972778
	C1354.358032,737.579956 1353.995605,737.277954 1353.487793,736.621765
	C1352.453979,731.518921 1348.419922,728.934570 1345.452148,725.827576
	C1336.438965,716.391541 1327.281616,707.075317 1317.632690,698.266418
	C1316.573120,697.299255 1315.421387,696.887817 1313.725586,696.671509
	C1305.300903,691.538696 1298.559448,684.791748 1291.048706,679.013550
	C1265.737305,659.541016 1238.743530,642.823425 1209.802734,629.402283
	C1186.680786,618.679688 1162.931519,609.486267 1138.045044,603.559021
	C1136.101562,603.096130 1134.153687,602.641907 1131.982910,601.652100
	C1124.500000,597.815063 1116.862183,596.058289 1108.519409,595.734985
	C1107.430054,595.951843 1106.700195,595.953613 1105.627686,595.744080
	C1102.946167,594.199158 1100.414062,593.494080 1097.317627,593.752441
	C1096.304443,593.929504 1095.621704,593.942566 1094.597900,593.829956
	C1092.954224,593.403320 1091.623657,593.155090 1089.951294,592.888184
	C1089.413330,592.726807 1089.204590,592.645142 1088.705322,592.401489
	C1086.079346,590.861267 1083.611572,590.664612 1080.723389,591.549683
	C1079.705078,591.869812 1079.001587,591.850220 1077.950562,591.556702
	C1073.190796,589.175415 1068.533691,588.897888 1063.360107,589.792114
	C1061.077148,590.185791 1059.291870,589.618469 1057.107178,589.044678
	C1053.036865,587.999573 1049.338623,588.131836 1045.226807,588.884521
	C1043.682983,589.167908 1042.555664,589.121643 1041.031006,588.690796
	C1039.614868,587.947510 1038.577759,587.407227 1037.363037,587.446228
	C1028.264893,587.737915 1019.126343,586.490295 1009.691528,588.378845
	C1007.687927,589.305908 1005.981812,589.343628 1003.840576,589.106201
	C1000.320007,588.130310 997.172363,588.125671 993.629822,588.789307
	C991.476257,589.398499 989.717773,589.994812 987.449036,589.906616
	C982.264526,588.790222 977.591980,589.202454 972.716370,591.233887
	C971.703491,591.741699 970.978577,591.857239 969.878662,591.715088
	C968.694946,592.207947 969.432983,589.795349 968.029419,591.204346
	C967.350281,591.619812 966.900818,591.716248 966.083130,591.719116
	C961.312622,589.981934 957.609131,593.258972 953.123413,593.560425
	C952.551270,593.730896 952.319824,593.792786 951.735596,593.930420
	C949.000671,594.297180 946.586182,594.292053 943.870361,594.801514
	C940.411926,594.541748 937.565735,595.561462 934.378967,596.675903
	C933.812744,596.855957 933.582520,596.918579 933.000000,597.049438
	C928.321594,598.153870 923.517761,597.209167 919.396362,600.488403
	C918.926575,600.888550 918.734680,601.046631 918.217041,601.392578
	C917.174805,601.853210 916.430786,601.932617 915.300415,601.855591
	C912.324463,601.082275 909.740540,601.112000 907.211182,602.118103
	C901.566223,604.363342 895.401245,604.854187 889.526123,607.502869
	C889.051147,607.863098 888.864868,608.012146 888.377808,608.354736
	C887.443970,608.875183 886.773376,609.110474 885.778137,609.480347
	C885.226746,609.676270 885.004456,609.748291 884.443237,609.905823
	C879.477051,610.944397 874.491516,610.800964 870.450195,614.563843
	C870.008606,614.896240 869.833313,615.028687 869.377930,615.328918
	C867.957520,616.011169 866.633545,616.110779 865.406189,617.214478
	C864.949524,617.516846 864.753357,617.621094 864.239136,617.837524
	C856.120789,619.244751 849.553345,623.551697 842.230286,626.913696
	C841.740784,627.232300 841.536682,627.347168 841.004395,627.587280
	C831.058289,631.118469 821.949341,635.667847 813.307434,640.993225
	C809.668945,643.235413 805.517029,644.564209 802.011597,647.658813
	C801.597595,648.073547 801.418457,648.226318 800.929138,648.548767
	C795.535706,650.087952 791.730957,653.451660 787.502625,656.382812
	C780.818359,661.016296 773.878784,665.338501 767.222351,670.040039
	C757.311401,677.040283 747.489624,684.177368 738.562744,692.965454
	C738.223389,693.439575 738.089233,693.631226 737.734253,694.097412
	C737.349609,694.541260 737.185791,694.710571 736.750366,695.106445
	C736.281494,695.461426 736.084106,695.589783 735.576294,695.883728
	C731.770630,697.497742 729.466248,700.489685 726.873474,702.967712
	C716.489075,712.892578 706.425659,723.148865 696.780457,733.803772
	C696.451721,734.167053 696.286072,734.663513 695.916138,735.433228
	C695.615356,735.946045 695.479736,736.142700 695.095764,736.598633
	C685.368164,745.333801 678.302612,755.843445 670.819275,765.942688
	C663.927429,775.243591 657.632446,785.015076 651.527649,794.850708
	C645.592163,804.413635 640.284546,814.368530 635.009888,824.344849
	C629.842041,834.119324 626.642944,844.841492 620.242676,854.011841
	C618.264038,856.846924 618.900879,860.784851 617.747437,864.467896
	C617.465271,865.032043 617.323181,865.245300 616.904053,865.730225
	C613.457825,868.841064 612.504150,872.988647 611.682251,876.672791
	C609.580261,886.096252 605.287231,894.775085 603.208618,904.198059
	C600.921509,914.565735 598.195251,924.857666 596.004944,935.236389
	C593.381653,947.667114 591.092957,960.220154 590.683960,973.379883
	C590.826233,974.296814 590.815186,974.822998 590.633789,975.724792
	C588.617676,979.404724 589.234619,982.906250 589.806458,986.784851
	C590.175720,989.114563 589.562256,990.933350 589.011353,993.178101
	C587.838623,998.041809 588.590027,1002.572449 588.399353,1007.496216
	C588.532227,1010.527283 588.373535,1013.130859 588.484253,1016.169495
	C588.487427,1016.897644 588.478027,1017.188843 588.491211,1017.917480
	C588.434143,1022.436890 588.423950,1026.519165 588.490234,1031.039795
	C588.492249,1031.769043 588.482483,1032.060303 588.491455,1032.788574
	C588.448853,1035.544067 588.436707,1037.863159 588.426758,1040.613770
	C588.445740,1045.883667 588.153931,1050.726196 588.736572,1055.952148
	C589.350464,1058.197510 589.944458,1060.027100 589.921997,1062.364746
	C589.282043,1066.252563 588.629944,1069.745728 590.354980,1073.529297
	C590.696167,1074.384644 590.788574,1074.902588 590.786560,1075.833252
	C590.481567,1082.532471 591.315674,1088.681274 592.487122,1094.887573
	C593.745911,1101.557007 594.777527,1108.266113 596.146606,1114.931763
	C601.069702,1138.902100 607.878601,1162.276978 617.125000,1184.946533
	C619.128784,1189.859131 620.554260,1195.012451 623.993164,1199.649170
	C624.904297,1200.408447 625.355469,1201.030151 625.688416,1202.154419
	C625.587463,1209.077271 629.252441,1214.147705 632.255371,1219.495117
	C639.404053,1232.224731 645.605408,1245.493164 653.412476,1257.833984
	C656.463440,1262.656738 658.876587,1268.088867 663.888733,1271.938721
	C664.618103,1272.366211 664.986511,1272.673340 665.503174,1273.334717
	C667.272339,1279.455078 670.574646,1284.096313 674.507935,1288.685791
	C682.005920,1297.434814 688.625610,1306.931763 696.962524,1315.435547
	C697.434998,1315.772217 697.626160,1315.905029 698.093018,1316.254517
	C698.541626,1316.629395 698.714600,1316.787598 699.127808,1317.203369
	C699.514160,1317.644653 699.660278,1317.828491 700.007324,1318.301147
	C707.203735,1327.691406 715.596619,1335.461304 723.831299,1343.381958
	C731.349854,1350.613892 739.258240,1357.419556 747.003784,1364.400146
	C751.043518,1368.041016 756.111450,1370.396851 760.181519,1374.106445
	C761.870178,1375.645630 764.211853,1376.494873 764.602905,1379.152344
	C764.785767,1380.395020 765.781067,1380.737793 766.793274,1380.751709
	C769.789429,1380.793213 771.987122,1382.822876 774.938477,1383.890625
	C775.462646,1384.128174 775.665833,1384.234619 776.149048,1384.536743
	C778.626160,1386.543945 780.407776,1388.893066 783.497314,1390.087891
	C784.012878,1390.327148 784.214844,1390.434570 784.701355,1390.737305
	C789.249451,1394.892700 794.471375,1397.367920 799.295227,1400.469116
	C804.334656,1403.708862 809.392273,1406.674805 815.252502,1409.025146
	C815.779114,1409.289062 815.982361,1409.409912 816.459839,1409.755615
	C820.077881,1413.408081 824.674133,1414.710449 828.823975,1416.537842
	C834.785156,1419.162842 839.914856,1423.776733 847.132812,1424.322632
	C848.288635,1424.380127 848.958069,1424.700806 849.765808,1425.555664
	C851.657776,1428.504883 854.721924,1429.000244 857.197693,1429.821655
	C866.317078,1432.846802 875.178772,1436.567017 884.178345,1439.876465
	C895.572815,1444.066528 907.317505,1446.814209 918.969482,1449.876953
	C929.322998,1452.598511 939.979858,1454.195068 950.456787,1456.522217
	C952.674622,1457.014893 955.086853,1456.888062 957.779297,1456.167725
	C959.045898,1455.983032 959.889771,1456.055908 961.126587,1456.445923
	C967.349182,1460.065552 974.020386,1460.015137 980.348022,1460.451416
	C998.989136,1461.736694 1017.646179,1463.408569 1036.364990,1462.566650
	C1043.300293,1462.254883 1050.228638,1461.360962 1057.159302,1461.200562
	C1061.773315,1461.093872 1066.391968,1460.948730 1070.964233,1460.525146
	C1076.662109,1459.997437 1082.350342,1459.111694 1088.181519,1457.098145
	C1089.255493,1456.291138 1090.099731,1456.097778 1091.417725,1456.063477
	C1099.065308,1457.593262 1105.897949,1455.028687 1112.763184,1453.730835
	C1121.758545,1452.030396 1130.772095,1450.295776 1140.048584,1448.176270
	C1143.021118,1450.340942 1141.478271,1452.495972 1140.468872,1454.500366
	C1135.907471,1463.557861 1131.097656,1472.493652 1126.619263,1481.588135
	C1112.800049,1509.651489 1098.451294,1537.446411 1084.172974,1565.273560
	C1073.162720,1586.731323 1062.402100,1608.316406 1051.303833,1629.730225
	C1047.405151,1637.252319 1043.527832,1644.799072 1039.728760,1652.379272
	C1038.780029,1654.272095 1037.932861,1656.405396 1035.025879,1656.938599
	C1021.063110,1656.994507 1007.520081,1657.053711 993.516968,1656.885010
	C989.600220,1657.109131 986.171326,1656.848877 982.348999,1656.227539
	C975.885193,1654.006226 969.480713,1655.001343 963.255188,1654.194214
	C951.630188,1652.687012 939.935486,1651.635498 928.345520,1649.813599
	C903.793396,1645.954224 879.459656,1641.056030 855.563171,1634.136475
	C833.867676,1627.854492 812.333191,1621.075073 791.386292,1612.587769
	C780.797668,1608.297729 770.450378,1603.454956 760.100830,1598.590576
	C750.794495,1594.216309 741.362122,1590.073364 732.231689,1585.318848
	C713.524292,1575.577271 695.359863,1564.903320 677.819336,1553.179443
	C673.814392,1550.502563 669.749207,1547.920166 665.275146,1545.244141
	C664.926514,1545.055786 665.004272,1545.018188 664.976074,1545.051025
	C657.339294,1539.231567 649.827759,1533.253540 641.882996,1527.845703
	C638.592041,1525.605469 635.747925,1522.754272 632.075806,1520.425781
	C631.759644,1520.269531 631.734558,1520.069092 631.729675,1520.170166
	C628.247009,1516.267578 623.513367,1513.748779 619.709595,1510.084717
	C617.575562,1508.029175 614.930664,1506.573242 614.088562,1503.462402
	C613.958923,1502.983398 613.738525,1502.389282 613.286743,1502.253906
	C605.634949,1499.960815 601.548889,1492.826416 595.101746,1488.911133
	C594.824280,1488.742798 594.498596,1488.645996 593.963257,1488.229736
	C593.560364,1487.850830 593.408630,1487.714844 593.107544,1487.312500
	C590.855530,1484.780884 588.704773,1482.564331 586.101074,1480.351562
	C585.811768,1480.191040 586.000000,1480.000000 585.905579,1480.094482
	C584.684692,1478.288696 583.100220,1476.822144 581.074829,1475.350586
	C580.783691,1475.203491 580.999573,1475.022217 580.898010,1475.120117
	C580.257568,1474.052124 579.273987,1473.290649 578.029785,1472.401123
	C577.736084,1472.303223 577.878052,1472.125610 577.788086,1472.195068
	C577.297058,1471.008545 576.242981,1470.305786 575.053223,1469.353271
	C574.769775,1469.228882 574.987793,1469.000000 574.880981,1469.114990
	C573.726990,1467.265503 572.092529,1465.847290 570.091187,1464.348633
	C569.803345,1464.194824 569.997559,1464.000000 569.901245,1464.097168
	C564.991577,1458.987793 560.274353,1453.693970 555.488647,1448.462646
	C552.906128,1445.639648 550.362610,1442.802124 549.010864,1439.128052
	C548.667175,1438.194092 548.417908,1437.049927 547.541260,1436.584961
	C538.014465,1431.531372 533.810974,1421.637329 527.009155,1414.114014
	C525.568359,1412.520508 524.393250,1410.677124 522.323730,1409.201538
	C522.082458,1408.949219 522.007690,1408.991211 522.030396,1408.954834
	C517.904907,1400.320557 510.827423,1393.809448 505.680420,1385.894409
	C498.276031,1374.507935 491.026062,1363.025391 483.661957,1351.619019
	C476.033325,1339.802612 469.696869,1327.302490 462.951904,1315.031006
	C456.276459,1302.885864 450.909821,1290.059692 445.265869,1277.380493
	C441.163696,1268.164917 437.704834,1258.694458 433.207214,1249.294312
	C432.664703,1248.536743 432.385559,1248.033447 432.101624,1247.230957
	C431.603699,1241.763550 428.788055,1237.352417 427.117920,1232.259033
	C426.849426,1232.037598 426.638916,1231.634155 426.605042,1231.409058
	C424.855743,1223.582764 421.964996,1216.338501 419.760162,1208.882202
	C414.033356,1189.515869 408.653046,1170.084595 404.923737,1150.211426
	C404.076874,1145.698730 403.982544,1140.974121 401.705048,1136.377197
	C401.390991,1135.575806 401.278595,1135.119629 401.183472,1134.309326
	C401.141205,1124.349243 398.714386,1115.033691 397.646729,1105.546021
	C396.725494,1097.359253 395.086212,1089.247681 395.025970,1080.973022
	C394.993469,1076.505493 393.463593,1072.214111 393.434570,1067.364014
	C393.179108,1066.536133 393.127197,1066.081543 393.109283,1065.284180
	C392.639038,1058.986328 393.382507,1053.035400 393.063141,1047.062378
	C392.159851,1030.168457 392.580902,1013.272827 393.441162,996.380737
	C393.617249,992.922546 392.747894,989.446533 393.085815,985.500610
	C393.164734,982.985901 393.204071,980.919922 393.341187,978.422729
	C395.082062,974.945312 394.751434,971.560974 394.966034,968.306824
	C395.702179,957.143677 397.142212,946.074829 398.916565,935.035583
	C399.935791,928.694641 400.623016,922.302124 401.371155,915.515564
	C401.307098,914.616577 401.344543,914.136597 401.557922,913.338989
	C404.161285,907.514893 404.573608,901.499451 405.765320,895.721191
	C407.567902,886.981018 409.720490,878.344360 411.757050,869.667419
	C413.154358,863.714050 414.861237,857.832153 416.082886,851.428894
	C416.183807,850.561096 416.246918,850.092712 416.500580,849.323303
	C422.593170,833.924377 426.177185,818.006226 432.375610,803.063782
	C436.043304,794.222107 439.169220,785.123840 443.477478,776.546021
	C445.714569,772.091980 447.373505,767.442139 448.798706,762.309082
	C449.003387,761.995300 449.001221,762.000000 449.000305,762.002441
	C457.030396,745.793213 465.583710,729.846863 473.798737,713.319092
	C474.011597,713.017639 473.998779,713.000000 474.008087,713.004944
	C476.381775,711.017029 477.704865,708.390076 478.736389,705.184937
	C478.880768,704.872253 478.880768,704.990784 478.856323,704.936768
	C480.134949,704.142212 480.416931,702.856384 480.806396,701.254333
	C480.990479,700.979004 481.001617,701.000000 480.990570,700.996094
	C486.103455,695.465332 489.234589,688.597046 493.220886,682.332520
	C499.963165,671.737061 507.283600,661.601013 514.692688,651.479126
	C520.855774,643.059387 527.568848,635.056946 533.622070,626.117798
	C533.799744,625.806580 533.904541,625.809509 533.859985,625.837158
	C534.162415,625.769348 534.452148,625.584412 534.756165,625.055359
	C534.827820,624.801086 534.829163,624.930176 534.792603,624.877014
	C540.514038,617.894592 546.732788,611.363708 552.590088,604.073486
	C552.745972,603.761597 552.883057,603.779175 552.818237,603.803223
	C555.271240,600.331787 558.695068,597.667969 561.571533,594.063416
	C561.711975,593.753967 561.900024,593.881836 561.822754,593.798462
	C563.257202,593.140381 564.011475,591.887756 564.813965,590.252441
	C565.008728,590.000854 565.000000,590.000000 565.000854,590.004578
	C566.410339,589.037903 567.667725,587.911438 568.786926,586.201660
	C568.949219,585.926575 568.995422,585.986572 568.958618,585.977539
	C569.209595,585.797424 569.461914,585.584290 569.826416,585.129150
	C569.974121,584.929199 569.981506,584.999451 569.954407,584.976807
	C573.144531,583.125854 575.236938,580.173645 577.721069,577.133789
	C577.950378,576.883850 577.946106,576.971924 577.913818,576.941956
	C580.447021,575.114014 582.279480,572.562805 584.743530,570.186523
	C584.957581,569.932373 585.001343,569.984680 584.967651,569.979553
	C585.213928,569.794495 585.462769,569.578674 585.825073,569.125793
	C585.969727,568.924683 585.980469,568.998047 585.951782,568.974609
	C587.029175,567.941772 588.174988,566.986938 589.634583,566.017761
	C589.738464,565.715698 589.788330,565.707886 589.777100,565.730469
	C590.139709,565.745789 590.448608,565.604675 590.738770,565.045288
	C590.795227,564.781921 590.738831,564.757874 590.738281,564.727234
	C591.990967,564.293335 592.696289,563.251099 593.602722,562.033936
	C593.703613,561.742004 593.851074,561.849060 593.799683,561.773804
	C598.468872,558.872803 601.551819,554.202454 605.963867,550.977966
	C612.864197,545.934937 618.703735,539.600769 625.678894,534.098022
	C625.872253,533.805298 625.869019,533.953247 625.842651,533.884155
	C635.087646,527.425842 643.451782,519.820190 652.759399,513.501282
	C662.185913,507.101624 671.093628,499.983917 680.874878,494.052582
	C687.500916,490.034607 694.309021,486.228516 700.764648,481.267395
	C701.009460,481.005768 701.000000,481.000000 701.001648,481.004517
	C704.893921,478.930878 709.537476,478.178558 712.741455,474.213593
	C712.976746,473.950317 712.997925,474.001343 712.974365,473.986816
	C725.418274,468.318542 737.008911,460.958252 749.440735,455.231232
	C753.476379,453.372070 757.732666,451.960785 761.732788,449.200562
	C762.018799,448.967651 762.286255,448.822937 762.437744,448.835388
	C774.816162,443.312317 787.735352,439.471069 799.745239,433.345093
	C804.423523,430.958801 809.699280,429.624146 814.767029,428.067413
	C832.779602,422.534424 850.425232,415.887207 868.968262,411.942841
	C879.124573,409.782501 889.193970,406.978821 899.382690,404.782135
	C903.694946,403.852417 908.203125,403.827454 912.671265,401.822357
	C913.465881,401.484375 913.913330,401.336273 914.718506,401.202759
	C927.719116,400.267731 940.163757,397.847687 952.709412,396.178619
	C959.230103,395.311127 965.801453,394.810394 972.380371,394.546051
	C974.048279,394.479034 975.677063,394.347748 977.626404,393.543854
	C979.419128,393.257141 980.826904,393.164825 982.655884,393.125122
	C1010.056335,392.289795 1037.036743,392.030884 1064.489746,393.069489
	C1067.015869,393.134613 1069.071411,393.166870 1071.559570,393.280304
	C1075.073486,394.808136 1078.414185,394.853180 1081.694092,394.972137
	C1092.557495,395.366180 1103.265503,396.986389 1113.956909,398.793365
	C1120.630127,399.921234 1127.419312,400.187714 1134.490967,401.368073
	C1135.395142,401.307190 1135.880981,401.350128 1136.687622,401.573181
	C1144.074951,404.177246 1151.514038,404.872223 1158.765259,406.438660
	C1171.884155,409.272552 1184.838257,412.787842 1197.773193,416.317963
	C1213.106689,420.502594 1228.109985,425.804382 1243.129028,431.008392
	C1244.862915,431.609131 1246.651489,431.957764 1248.728027,432.743500
	C1249.083740,432.924683 1248.987793,432.957825 1249.028931,432.927856
	C1259.085815,437.671722 1269.507202,441.501617 1279.636841,446.003082
	C1294.485962,452.601990 1309.358887,459.142334 1323.377930,467.475983
	C1332.349365,472.808929 1341.777954,477.330719 1350.669434,482.854584
	C1365.899414,492.316345 1380.904419,502.101288 1395.911621,512.561401
	C1396.240723,512.729431 1396.238892,512.863098 1396.208618,512.803528
	C1406.419312,521.380432 1417.556519,528.877991 1427.795288,537.507507
	C1437.132812,545.377380 1446.102173,553.679138 1455.816162,561.656677
	C1456.106201,561.860840 1456.047974,561.961548 1456.093506,561.925293
	C1458.917847,565.460266 1462.370239,568.362183 1465.947021,571.582764
	C1466.256348,571.717651 1466.253174,571.783875 1466.220093,571.782349
	C1466.238525,572.148926 1466.407837,572.450867 1466.959473,572.741943
	C1467.223633,572.797302 1467.082031,572.997192 1467.137695,572.888184
	C1467.243530,573.146729 1467.404785,573.452576 1467.962891,573.729431
	C1468.229370,573.772705 1468.068726,573.997559 1468.144287,573.885010
	C1468.248779,574.143372 1468.399780,574.451050 1468.955566,574.745239
	C1469.218262,574.805603 1469.211304,574.736206 1469.245850,574.732056
	C1469.546387,575.903442 1470.607910,576.148071 1471.709961,576.813477
	C1472.225220,577.201233 1472.513916,577.386292 1472.892944,577.818726
	C1473.704468,578.784546 1473.849121,579.902161 1474.984863,580.617920
	C1475.276855,580.700134 1475.271973,580.774658 1475.234863,580.778503
	C1475.242920,581.151062 1475.409546,581.452637 1475.963867,581.727783
	C1476.229858,581.768494 1476.084229,581.938660 1476.153076,581.856506
	C1476.250854,582.145508 1476.401855,582.453369 1476.958618,582.746643
	C1477.221680,582.806091 1477.077515,582.981201 1477.132324,582.881958
	C1477.236084,583.151367 1477.411133,583.449402 1477.955566,583.751221
	C1478.216919,583.815796 1478.200562,583.749268 1478.234741,583.748291
	C1483.151245,589.814575 1489.048218,594.942688 1494.035278,600.935547
	C1497.528931,605.133972 1501.460693,608.819336 1503.913696,613.949097
	C1505.392944,617.042786 1509.383911,618.390747 1511.739746,621.278809
	C1516.975830,627.697815 1521.352051,634.827637 1527.683228,640.797974
	C1527.924927,641.049500 1527.993408,641.002502 1527.971191,641.037476
	C1532.296387,649.499878 1538.938477,656.303345 1544.249756,664.056763
	C1551.919312,675.252686 1559.173462,686.702393 1566.164795,698.321533
	C1567.615356,700.732422 1569.474854,702.886902 1570.918823,705.673096
	C1571.224854,705.860291 1571.056763,705.874573 1571.133545,705.839478
	C1576.441895,715.391479 1581.571899,725.033813 1586.780151,734.633545
	C1590.490723,741.472717 1593.817505,748.519897 1597.062012,755.614685
	C1602.084839,766.598633 1607.133789,777.561157 1611.600464,788.784485
	C1620.844238,812.010315 1628.944458,835.628540 1635.528564,859.745239
	C1640.273071,877.122620 1643.817139,894.783447 1647.661377,912.737061
	C1647.882935,913.053284 1647.964478,913.096802 1647.938477,913.135010
	C1649.135498,923.606384 1650.941895,933.962097 1652.014893,944.416321
	C1653.041016,954.413513 1654.996948,964.306335 1655.162598,974.409058
	C1655.193848,976.326294 1654.493042,978.381836 1655.832275,980.594604
z"/>
<path fill="#5A02BF" opacity="1.000000" stroke="none"
	d="
M1420.837402,1212.643066
	C1426.173218,1223.339111 1431.299683,1233.718628 1436.479126,1244.071655
	C1455.215576,1281.523682 1473.948120,1318.977539 1492.726807,1356.408325
	C1502.094238,1375.080200 1511.558472,1393.703613 1521.086548,1412.698486
	C1524.361328,1415.042236 1522.434204,1419.447754 1525.469238,1421.879883
	C1553.770752,1478.005737 1581.880005,1533.846313 1609.913086,1589.725098
	C1619.894897,1609.622070 1629.694702,1629.610352 1639.562866,1649.564453
	C1639.994873,1650.437866 1640.278320,1651.384766 1640.835938,1652.585938
	C1641.843506,1654.289917 1642.140625,1655.774414 1641.385742,1657.757080
	C1640.518555,1658.409790 1639.894653,1658.494995 1638.773926,1658.290283
	C1635.644409,1657.848877 1632.976074,1658.004761 1630.313721,1658.004639
	C1435.409180,1657.996216 1240.504761,1657.997314 1045.600220,1657.990845
	C1042.936646,1657.990723 1040.269409,1658.111206 1037.132324,1657.707520
	C1036.378662,1657.371826 1036.101807,1657.185791 1035.885742,1656.503174
	C1040.990845,1648.783203 1044.367554,1640.648804 1048.402466,1632.886353
	C1056.832031,1616.669067 1064.856689,1600.242065 1073.143677,1583.950073
	C1081.352661,1567.811523 1089.709717,1551.748169 1097.947998,1535.624512
	C1110.787354,1510.495483 1123.597778,1485.351685 1136.375244,1460.191162
	C1138.093140,1456.808594 1139.548950,1453.292847 1141.162109,1449.466797
	C1141.378540,1447.982178 1141.816528,1446.941406 1142.214844,1445.523682
	C1153.015381,1424.382446 1163.900024,1403.675781 1174.278809,1382.710205
	C1175.307251,1380.632812 1176.205322,1378.472900 1177.989990,1376.414062
	C1182.140503,1372.608643 1184.637573,1367.912109 1186.749634,1363.386841
	C1192.010620,1352.114868 1197.909424,1341.216553 1203.947266,1330.368896
	C1205.152466,1328.203369 1206.347534,1325.984863 1206.753784,1323.468018
	C1206.886353,1322.646606 1206.902344,1321.599365 1207.504517,1321.127197
	C1212.368408,1317.314087 1212.735107,1311.057739 1215.659668,1306.177612
	C1218.634521,1301.213623 1220.594360,1295.640991 1223.348267,1290.525635
	C1228.372681,1281.193359 1233.351440,1271.830200 1238.051147,1262.341064
	C1240.833008,1256.723999 1243.901733,1251.239990 1246.670654,1245.616455
	C1252.877197,1233.011353 1259.463745,1220.553955 1265.696533,1207.963257
	C1270.537354,1198.184082 1276.532104,1188.900513 1279.952637,1178.026123
	C1280.157715,1177.449829 1280.256836,1177.225708 1280.556763,1176.695068
	C1283.077271,1174.613525 1284.156860,1172.180786 1285.273804,1169.489624
	C1288.837646,1160.903687 1293.085571,1152.594482 1297.720459,1144.550659
	C1301.541748,1137.918701 1304.017456,1130.696411 1307.774170,1123.693848
	C1307.911621,1123.128174 1307.974854,1122.905029 1308.154175,1122.356201
	C1308.359741,1121.819702 1308.449341,1121.608765 1308.683594,1121.086914
	C1308.929688,1120.570557 1309.031006,1120.365234 1309.291138,1119.854370
	C1309.669434,1119.140503 1309.900024,1118.738281 1310.327271,1118.037842
	C1310.658081,1117.540527 1310.801147,1117.346436 1311.182129,1116.875854
	C1317.740479,1108.352539 1320.138184,1098.024780 1325.865601,1089.419922
	C1327.821655,1086.481079 1329.715942,1084.902222 1333.299561,1084.651123
	C1340.140625,1084.171631 1346.854858,1086.003296 1353.682373,1085.397583
	C1355.334595,1085.250854 1356.525024,1086.455444 1357.133301,1087.882202
	C1362.214355,1099.802124 1369.319702,1110.698364 1374.449707,1122.621094
	C1377.386475,1129.446289 1381.336792,1135.871338 1384.961182,1142.401611
	C1386.114014,1144.478760 1386.998291,1146.494629 1387.477295,1148.817505
	C1388.116821,1151.918457 1389.431641,1154.696777 1391.521484,1157.246460
	C1394.686157,1161.107910 1396.430054,1165.929565 1398.489868,1170.373047
	C1404.953735,1184.317261 1412.178833,1197.839478 1419.822754,1211.548096
	C1420.293457,1211.962036 1420.472900,1212.138184 1420.837402,1212.643066
z"/>
<path fill="#C59AFF" opacity="1.000000" stroke="none"
	d="
M1638.495850,1657.674072
	C1639.410522,1657.835693 1639.842896,1657.870117 1640.597168,1657.850586
	C1641.451538,1657.521729 1642.005615,1657.467896 1642.826416,1657.988770
	C1641.391113,1659.430542 1639.506592,1658.967285 1637.714355,1658.967529
	C1439.357300,1658.989258 1241.000366,1658.988892 1042.643311,1658.979736
	C1040.651489,1658.979614 1038.659668,1658.845947 1036.658691,1658.191650
	C1037.978760,1657.458740 1039.313110,1657.518188 1040.645264,1657.518188
	C1238.934937,1657.515869 1437.224731,1657.515503 1635.514404,1657.515625
	C1636.347534,1657.515625 1637.180664,1657.514282 1638.495850,1657.674072
z"/>

<path fill="#EEE3FF" opacity="1.000000" stroke="none"
	d="
M1310.149414,1119.789307
	C1309.951172,1120.007935 1309.747437,1120.176758 1309.764893,1120.307861
	C1309.818237,1120.864746 1309.690918,1121.238281 1309.189941,1121.769775
	C1308.957886,1121.972778 1309.003296,1121.993652 1308.983154,1121.977295
	C1306.295288,1128.380493 1303.021606,1134.524658 1299.892212,1140.707153
	C1294.503784,1151.352173 1288.808594,1161.840332 1283.971924,1172.759155
	C1283.352905,1174.156616 1282.284302,1175.209473 1281.162354,1176.687988
	C1280.930786,1176.974976 1280.999146,1176.988770 1280.976440,1176.962402
	C1275.947998,1188.332275 1269.832153,1199.178345 1264.388306,1210.353638
	C1257.704834,1224.073853 1250.328247,1237.434204 1243.718750,1251.194824
	C1235.613403,1268.069214 1226.573486,1284.478149 1218.186279,1301.219360
	C1206.226929,1325.090332 1193.976685,1348.816895 1181.715698,1372.536011
	C1181.027222,1373.867920 1180.308228,1375.177979 1179.193115,1376.684326
	C1168.066406,1398.280151 1157.163574,1419.577393 1146.225098,1440.856445
	C1145.405273,1442.451294 1144.945068,1444.333374 1143.082642,1445.652832
	C1138.921509,1448.905396 1133.978149,1449.253662 1129.399780,1450.392700
	C1119.469971,1452.863403 1109.405273,1454.802246 1099.348389,1456.733276
	C1097.200317,1457.145752 1095.021240,1456.757446 1092.474731,1457.218506
	C1091.285767,1457.265747 1090.515381,1457.306641 1089.389648,1457.502197
	C1083.040527,1459.734619 1076.712769,1460.383545 1070.520020,1460.819946
	C1050.973145,1462.197266 1031.373047,1464.119019 1011.787292,1462.839722
	C995.141541,1461.752441 978.313110,1462.019287 961.479736,1457.906006
	C960.261047,1457.602783 959.497009,1457.397339 958.331177,1457.222778
	C942.857849,1456.164917 928.330322,1452.210327 913.732727,1448.707886
	C892.116699,1443.521362 871.400146,1435.611938 850.810791,1427.361938
	C850.347717,1427.176392 849.980286,1426.817993 849.315063,1426.204468
	C848.542847,1425.636841 848.064697,1425.349731 847.296143,1425.047119
	C840.498962,1423.409302 835.004089,1419.532104 829.015137,1416.771729
	C824.828735,1414.842285 820.527344,1412.987183 816.386353,1410.152832
	C816.146851,1409.871704 816.107117,1409.913452 816.094727,1409.887451
	C804.954712,1404.754639 794.967529,1397.704224 784.344238,1391.080811
	C784.127380,1390.793335 784.111816,1390.941772 784.149414,1390.877319
	C781.286499,1389.506836 779.065735,1387.221313 776.237427,1385.229004
	C775.995605,1384.995361 776.000000,1385.000000 776.004517,1385.000977
	C762.634277,1376.848022 750.686035,1366.808228 738.684448,1356.831543
	C732.285400,1351.512207 726.581482,1345.446777 720.254761,1340.038574
	C712.652222,1333.539795 706.562988,1325.526245 699.406555,1318.084106
	C699.226135,1317.779663 699.134644,1317.775513 699.167786,1317.807129
	C698.852844,1317.750366 698.563599,1317.568359 698.258484,1317.041016
	C698.184326,1316.788452 698.252808,1316.794922 698.255920,1316.760742
	C686.235596,1303.560669 674.815979,1289.923218 665.186157,1274.445312
	C664.802429,1273.878784 664.666870,1273.561157 664.302002,1273.112915
	C658.182129,1266.222534 653.905579,1258.373047 649.291931,1250.773926
	C642.444641,1239.495972 636.572449,1227.667236 630.225342,1216.105835
	C628.056030,1212.154541 626.674866,1207.918823 624.899902,1203.431885
	C624.630371,1202.520264 624.458923,1201.962158 624.049805,1201.221924
	C619.698181,1193.428833 617.003235,1185.221802 613.845520,1177.212402
	C606.277405,1158.015747 600.957825,1138.125977 596.461975,1118.046509
	C593.426270,1104.488281 590.777344,1090.801025 589.935791,1076.452393
	C589.912964,1075.593750 589.920349,1075.142700 589.859009,1074.359375
	C588.613525,1070.733887 588.648071,1067.292480 588.653503,1063.449829
	C588.617065,1061.261597 588.473022,1059.491211 588.336548,1057.339355
	C586.917114,1051.851196 588.646545,1046.617432 587.576782,1041.148193
	C587.350708,1038.514893 587.268982,1036.223999 587.189453,1033.500732
	C587.267578,1032.877075 587.343628,1032.685913 587.274658,1032.222412
	C587.115356,1027.621216 587.101013,1023.292419 587.102173,1018.502075
	C587.218140,1017.861633 587.318726,1017.682556 587.296997,1017.220825
	C587.238342,1014.315002 587.301941,1011.691895 587.450684,1008.644714
	C588.062866,1003.408386 587.130798,998.534790 588.231812,993.387817
	C588.484924,991.259033 588.649780,989.485474 588.773376,987.329529
	C588.070923,983.487854 589.075073,980.131653 589.568481,976.352051
	C589.824280,975.521423 589.876831,975.070068 589.893677,974.278687
	C591.805359,954.702393 595.035645,935.709290 600.071655,917.013367
	C601.701660,910.961914 603.021301,904.828003 604.848083,898.815552
	C608.023438,888.364807 611.364136,877.974121 615.176331,867.737610
	C615.467529,866.955627 615.895386,866.244263 616.733032,865.309875
	C617.001465,864.994263 616.998291,865.000000 616.997131,865.002930
	C622.845947,847.376465 631.283203,830.901001 640.005005,814.606018
	C651.043396,793.982849 664.084595,774.610168 678.414795,756.122742
	C683.590393,749.445740 688.859558,742.835205 694.896057,736.413452
	C695.204163,736.215698 695.008667,736.044678 695.114136,736.120300
	C702.563110,726.924072 711.208557,718.875732 719.436035,710.434937
	C724.547791,705.190613 729.973694,700.287170 735.922729,695.452332
	C736.230347,695.284546 736.208801,695.249634 736.206421,695.229248
	C736.261047,694.854614 736.431885,694.564880 736.941895,694.230225
	C737.182373,694.129395 737.125793,694.192627 737.164978,694.208862
	C749.412842,683.028442 762.508301,672.946777 776.313660,663.830383
	C784.280945,658.569092 791.676025,652.380493 800.798828,648.264832
	C801.112793,648.095398 801.000305,648.078552 801.048279,648.109131
	C806.272156,644.289490 812.126343,641.580994 817.744629,638.512512
	C825.131409,634.478088 832.510742,630.358887 840.780945,627.271973
	C841.102966,627.096802 841.022095,627.027954 841.039551,627.078125
	C848.712402,623.591248 856.089111,619.382263 864.710449,617.222290
	C865.013367,617.000427 865.000671,616.997498 864.999023,617.002930
	C865.939941,615.964355 867.189941,615.603455 868.826782,615.300476
	C869.132568,615.178589 869.148804,615.237732 869.179138,615.242188
	C872.105225,613.680115 874.876831,611.847229 878.492004,611.047852
	C879.291626,610.969299 879.730774,610.864685 880.446167,610.534485
	C881.979187,609.967041 883.240967,609.641724 884.838379,609.325378
	C885.147522,609.228699 885.039429,609.257446 885.094482,609.267090
	C885.634766,608.161377 886.696167,608.665710 887.823608,608.348511
	C888.148987,608.255859 888.215027,608.338867 888.268066,608.337769
	C888.620239,607.209290 889.641541,607.142029 890.843262,606.761353
	C891.624451,606.570129 892.065796,606.449097 892.826111,606.201782
	C895.448242,605.081970 897.963196,604.837036 900.660889,604.032227
	C901.430481,603.949585 901.853027,603.841858 902.549072,603.523438
	C903.245789,603.242371 903.659668,603.138977 904.393921,603.034302
	C905.315125,602.881775 905.905334,602.694336 906.788391,602.410583
	C907.474426,602.190796 907.873413,602.089966 908.578064,601.941345
	C909.482056,601.748047 910.084290,601.618164 910.969727,601.333740
	C912.293945,600.969849 913.351196,601.051819 914.706726,600.932251
	C915.697693,600.846863 916.375427,600.792175 917.387573,600.670959
	C918.386658,600.402222 918.977905,600.042114 919.900208,599.573486
	C921.663879,598.657715 923.170227,598.068970 925.187012,598.024170
	C926.220764,597.994812 926.906311,597.959106 927.872925,597.570923
	C929.696228,596.883911 931.308533,596.751831 933.178833,596.233154
	C933.517639,596.176819 933.708496,596.360657 933.829346,596.306458
	C936.408325,594.961975 939.248352,595.181091 942.206787,594.307373
	C945.575867,594.687805 948.331177,592.963684 951.683289,593.322205
	C952.054749,593.173462 952.105408,593.153320 952.132446,593.150269
	C956.512878,592.579956 960.652283,590.701233 965.572205,591.046509
	C966.422119,591.020142 966.851196,590.974731 967.603699,590.917603
	C968.119690,590.754272 968.312317,590.602661 968.824341,590.633118
	C969.785767,590.762146 970.427673,590.709106 971.387451,590.603882
	C976.424133,588.952698 981.326050,588.690796 986.646606,588.731506
	C988.790405,588.692322 990.533630,588.482727 992.653564,588.274048
	C996.119995,587.862732 999.195618,587.264343 1002.697876,587.718506
	C1004.691101,587.833191 1006.326233,587.790283 1008.367920,587.716675
	C1019.268188,586.354736 1029.784912,587.015381 1040.753906,587.513977
	C1042.200317,587.742065 1043.190430,587.779175 1044.552246,587.828247
	C1048.701782,586.880432 1052.427368,588.023438 1056.575562,588.205444
	C1058.715088,588.482056 1060.458252,588.673523 1062.578857,588.887329
	C1067.902466,588.204712 1072.683472,589.242981 1077.871582,590.433594
	C1078.928345,590.654907 1079.578125,590.725464 1080.554321,590.821045
	C1083.396973,590.578430 1085.861450,590.925720 1088.657715,591.711121
	C1089.006348,591.949707 1089.025635,591.971252 1089.040283,591.970337
	C1090.376953,593.058411 1091.961304,592.245239 1093.739380,592.705933
	C1094.821167,592.894104 1095.552612,592.943542 1096.647705,593.040283
	C1099.605713,592.966064 1102.043579,593.734131 1104.835205,594.588013
	C1105.881104,594.828003 1106.590210,594.885620 1107.653198,594.981445
	C1116.047363,595.750854 1123.784180,597.784058 1131.678711,600.729126
	C1156.210083,605.803345 1179.127563,614.586365 1201.648682,624.384705
	C1242.670654,642.232300 1279.700806,666.430786 1313.731689,695.893738
	C1319.045044,698.789978 1322.436646,703.411194 1326.607056,707.121826
	C1336.355469,715.795471 1345.531006,725.076782 1353.708984,735.750854
	C1354.026245,736.344421 1354.208740,736.609497 1354.706299,736.921997
	C1362.005981,743.559265 1367.204712,751.671997 1373.285156,759.032471
	C1377.366089,763.972412 1381.282471,769.131714 1384.683350,775.031494
	C1384.812256,775.360535 1384.860229,775.706299 1384.954712,775.853027
	C1385.259766,776.235779 1385.470703,776.471313 1385.819092,776.900085
	C1385.956055,777.093750 1385.963867,777.010559 1385.931641,777.037170
	C1387.935303,778.888000 1389.117432,781.309448 1390.651245,783.893311
	C1390.825317,784.179871 1390.935425,784.107727 1390.869629,784.110962
	C1404.241089,803.700806 1415.459106,824.506714 1425.003174,846.625977
	C1425.211426,847.543640 1425.365601,848.097290 1425.750000,848.830566
	C1431.715088,859.527832 1435.292114,870.933594 1439.292725,882.133850
	C1445.689087,900.041321 1450.366089,918.455688 1454.179932,937.081726
	C1455.537842,943.713196 1456.916626,950.346619 1457.366943,957.512695
	C1457.355591,958.784119 1457.426636,959.657959 1457.708496,960.787231
	C1459.993896,967.197388 1460.381714,973.696533 1460.830322,980.027710
	C1462.202026,999.387085 1464.167480,1018.796143 1462.858765,1038.203369
	C1461.735718,1054.857910 1461.833130,1071.674683 1457.856201,1088.528198
	C1457.582397,1089.442627 1457.428711,1089.904785 1457.294189,1090.736572
	C1456.920288,1103.092041 1453.911987,1114.670410 1451.149292,1126.199707
	C1447.170776,1142.801758 1442.549438,1159.260254 1436.544067,1175.299072
	C1432.596924,1185.840942 1428.486206,1196.294556 1423.263428,1206.711182
	C1423.001221,1207.019531 1422.829102,1207.278198 1422.824829,1207.433594
	C1422.306152,1208.972290 1422.145874,1210.575684 1420.154907,1211.239868
	C1416.112671,1206.834229 1414.155029,1201.490479 1411.594727,1196.513794
	C1403.701050,1181.169678 1395.964478,1165.740356 1388.349854,1150.258545
	C1378.081421,1129.380859 1367.456177,1108.687012 1356.996826,1087.907837
	C1356.478882,1086.878784 1356.078369,1085.740723 1354.533203,1085.145142
	C1351.383057,1085.300171 1348.598755,1085.453613 1345.427979,1085.296021
	C1341.257324,1085.504639 1337.470093,1085.737061 1333.692749,1085.052734
	C1329.977661,1084.379883 1327.826050,1085.794189 1325.921143,1089.322266
	C1320.914795,1098.593994 1317.145874,1108.496704 1311.199463,1117.684326
	C1310.924805,1117.953613 1311.000000,1117.988403 1310.972412,1117.957520
	C1310.573975,1118.412231 1310.488403,1119.001465 1310.149414,1119.789307
z"/>

<path fill="#EEE2FF" opacity="1.000000" stroke="none"
	d="
M1104.486084,1611.308472
	C1101.968750,1609.621582 1103.972412,1608.429565 1104.510132,1607.371704
	C1138.213745,1541.073730 1171.994629,1474.814941 1205.738159,1408.537231
	C1229.889526,1361.100220 1253.998535,1313.641602 1278.129761,1266.194336
	C1278.554443,1265.359375 1279.024048,1264.547119 1279.830688,1263.067505
	C1285.877075,1275.035156 1291.639038,1286.434814 1297.396606,1297.836792
	C1345.769775,1393.631836 1394.143188,1489.426758 1442.512817,1585.223633
	C1446.262573,1592.650146 1450.045288,1600.061768 1453.627441,1607.568604
	C1454.031860,1608.416016 1456.590576,1609.829346 1453.373779,1611.065674
	C1450.298584,1612.513306 1447.454224,1611.416138 1444.696777,1611.417847
	C1331.450195,1611.488159 1218.203735,1611.498901 1104.486084,1611.308472
z"/>
</svg>